<?xml version="1.0" standalone="no"?>
<!DOCTYPE svg PUBLIC "-//W3C//DTD SVG 20010904//EN"
 "http://www.w3.org/TR/2001/REC-SVG-20010904/DTD/svg10.dtd">
<svg version="1.0" xmlns="http://www.w3.org/2000/svg"
 width="2735.000000pt" height="4083.000000pt" viewBox="0 0 2735.000000 4083.000000"
 preserveAspectRatio="xMidYMid meet">

<g transform="translate(0.000000,4083.000000) scale(0.100000,-0.100000)"
fill="#000000" stroke="none">
<path d="M1004 28198 c5 -82 32 -207 55 -263 91 -214 221 -373 407 -498 22
-15 45 -27 52 -27 7 0 12 -4 12 -10 0 -5 4 -10 10 -10 5 0 33 -11 62 -24 29
-13 64 -27 78 -30 14 -4 34 -11 45 -16 71 -32 165 -35 1173 -37 l1012 -3 0
-1205 0 -1205 -187 2 -188 3 -5 310 c-5 321 -8 340 -49 372 -24 19 -338 17
-371 -2 -16 -9 -56 -14 -115 -15 -49 0 -95 -4 -101 -8 -22 -14 -54 -87 -54
-122 0 -19 7 -53 14 -75 14 -40 12 -91 -5 -109 -13 -15 -11 -200 2 -213 15
-15 15 -111 0 -126 -15 -15 -15 -199 0 -214 15 -15 15 -111 0 -126 -13 -13
-15 -198 -2 -212 17 -19 19 -70 5 -110 -15 -44 -19 -220 -5 -229 17 -11 19
-71 4 -115 -21 -63 -12 -124 24 -169 l30 -37 104 -5 c59 -3 114 -11 128 -18
32 -19 307 -13 337 7 48 32 49 37 52 374 l3 317 190 0 189 0 0 -301 0 -302 73
9 c39 5 378 9 752 9 685 0 817 -5 967 -39 32 -7 60 -11 63 -8 3 3 5 311 5 684
l0 678 -350 0 -350 0 0 -60 0 -60 -260 0 -260 0 0 230 0 230 260 0 259 0 3
-62 3 -63 345 0 345 0 3 163 2 162 -605 0 -605 0 0 340 0 340 -95 0 -95 0 0
543 c0 299 -3 747 -7 995 l-6 452 -1680 0 -1680 0 7 -92z"/>
<path d="M22977 27283 c-4 -3 -7 -148 -7 -320 l0 -314 -95 3 -95 3 0 -517 0
-518 -600 0 -600 0 0 -165 0 -165 345 0 345 0 0 65 0 65 260 0 260 0 0 -230 0
-230 -260 0 -260 0 0 60 0 60 -345 0 -345 0 0 -686 c0 -637 1 -686 17 -680 34
13 102 25 218 38 140 15 1435 19 1547 4 l68 -9 2 299 3 299 190 0 190 0 5
-321 c6 -360 4 -353 79 -374 58 -16 292 -12 315 5 14 11 47 15 119 15 97 0 99
0 127 30 36 38 46 98 32 178 -7 40 -7 73 0 103 6 26 7 89 3 154 -4 61 -5 130
-4 155 2 25 3 93 2 153 0 59 0 134 0 167 0 33 0 110 0 170 0 61 0 137 0 170 0
337 0 392 1 465 1 48 -4 67 -22 93 l-23 32 -90 0 c-57 0 -103 5 -126 15 -26
11 -76 15 -194 15 -152 0 -159 -1 -186 -24 l-28 -24 -5 -324 -5 -323 -190 0
-190 0 0 835 0 835 213 3 212 2 0 218 c0 198 -2 223 -22 286 -17 53 -34 81
-73 121 -80 83 -111 97 -245 106 -142 10 -534 11 -543 2z"/>
<path d="M7260 25190 l0 -361 43 3 42 3 0 355 0 355 -42 3 -43 3 0 -361z"/>
<path d="M8555 25537 c-3 -6 -4 -167 -3 -357 l3 -345 41 -3 41 -3 6 177 c3 98
3 260 0 361 l-6 183 -39 0 c-22 0 -41 -5 -43 -13z"/>
<path d="M12987 25543 c-4 -3 -7 -165 -7 -360 l0 -353 45 0 45 0 0 360 0 360
-38 0 c-21 0 -42 -3 -45 -7z"/>
<path d="M14277 25544 c-4 -4 -7 -167 -7 -361 l0 -354 48 3 47 3 0 355 0 355
-40 3 c-23 2 -44 0 -48 -4z"/>
<path d="M18707 25544 c-4 -4 -7 -166 -7 -361 l0 -353 45 0 45 0 -2 358 -3
357 -35 3 c-20 2 -39 0 -43 -4z"/>
<path d="M20007 25544 c-4 -4 -7 -167 -7 -361 l0 -354 43 3 42 3 0 355 0 355
-35 3 c-20 2 -39 0 -43 -4z"/>
<path d="M12494 24120 c-23 -10 -54 -34 -69 -54 -30 -39 -53 -48 -175 -65 -77
-11 -193 -31 -335 -56 -44 -8 -123 -22 -175 -31 -96 -15 -181 -30 -390 -65
-63 -10 -160 -26 -215 -34 -55 -9 -113 -20 -130 -25 -16 -5 -62 -12 -101 -16
l-71 -6 -574 -420 c-316 -230 -605 -442 -644 -470 -113 -84 -495 -360 -535
-388 -12 -8 -46 -33 -75 -55 -147 -109 -186 -138 -231 -167 -27 -17 -69 -45
-94 -61 -83 -54 -232 -129 -240 -121 -5 5 -10 32 -12 59 l-3 50 -529 3 c-292
1 -534 -2 -538 -6 -7 -7 1 -32 42 -127 5 -11 14 -38 21 -60 6 -22 15 -44 19
-50 4 -5 11 -26 15 -45 4 -19 11 -39 15 -45 8 -9 20 -49 55 -182 9 -32 20 -67
24 -78 29 -67 132 -537 165 -755 7 -47 17 -96 21 -108 7 -26 25 -169 55 -457
32 -302 38 -398 51 -780 6 -198 13 -362 15 -364 5 -5 54 46 159 164 39 43 84
94 100 111 17 18 55 61 85 95 30 34 75 82 98 108 24 25 60 66 80 89 20 24 59
68 86 97 28 30 74 80 102 112 120 136 136 151 159 157 14 4 25 11 25 16 0 6 5
10 12 10 11 0 118 50 128 60 3 3 22 13 43 22 20 10 37 23 37 30 0 7 -15 44
-34 83 -59 123 -106 226 -106 233 0 4 -6 19 -14 34 -8 14 -19 43 -26 65 -7 21
-16 43 -20 48 -4 6 -13 26 -18 45 -6 19 -23 67 -37 105 -15 39 -31 86 -36 105
-6 19 -14 44 -19 55 -12 26 -78 264 -95 340 -8 33 -19 77 -25 98 -6 22 -10 40
-8 41 2 2 36 29 77 62 85 68 319 243 371 278 19 13 61 43 93 67 72 56 156 117
382 281 99 72 201 148 226 169 26 22 52 39 57 39 6 0 15 6 19 13 4 6 15 17 24
22 48 30 255 180 279 202 17 15 116 90 150 113 12 8 37 26 55 40 18 14 43 32
55 40 12 8 46 33 75 55 29 22 63 47 75 55 12 8 46 33 75 55 29 22 62 47 75 55
12 8 46 33 75 55 29 22 62 47 75 55 12 8 46 33 76 55 29 22 74 55 98 73 l45
32 645 0 c376 0 647 -4 650 -9 4 -5 -1 -58 -9 -118 -45 -317 -45 -327 -34
-376 9 -37 20 -55 56 -84 l45 -37 122 -4 121 -4 0 73 0 74 58 3 57 3 0 164 0
165 -60 0 -60 0 0 505 0 505 -22 -1 c-13 0 -42 -9 -64 -19z"/>
<path d="M14767 24133 c-4 -3 -7 -230 -7 -504 l0 -498 -57 -3 -58 -3 -3 -162
-2 -162 57 -3 58 -3 3 -72 3 -73 87 0 c132 0 159 7 207 54 58 56 68 96 50 200
-7 44 -17 108 -20 141 -4 33 -13 95 -21 138 -8 44 -11 83 -8 88 3 5 278 9 650
9 586 0 647 -2 672 -17 15 -9 32 -21 37 -27 6 -6 30 -24 55 -41 25 -16 49 -36
53 -42 4 -7 12 -13 18 -13 9 0 98 -65 130 -95 9 -8 19 -15 23 -15 6 0 94 -65
129 -95 9 -8 19 -15 22 -15 5 0 91 -63 125 -92 9 -7 36 -26 60 -43 25 -16 49
-36 53 -42 4 -7 13 -13 19 -13 5 0 32 -17 58 -37 26 -21 58 -45 70 -53 13 -8
34 -25 47 -37 14 -12 84 -64 155 -115 71 -51 152 -110 179 -130 26 -21 51 -38
55 -38 4 0 12 -6 18 -14 6 -7 232 -174 501 -371 270 -197 501 -369 515 -383
14 -13 44 -38 68 -55 23 -17 42 -33 42 -36 -1 -3 -7 -33 -15 -66 -8 -33 -21
-91 -30 -129 -8 -37 -18 -73 -21 -78 -3 -5 -12 -33 -19 -61 -26 -103 -47 -172
-55 -182 -4 -5 -10 -23 -14 -40 -4 -16 -15 -52 -26 -80 -66 -175 -94 -245
-111 -281 -10 -23 -19 -44 -19 -47 0 -5 -64 -145 -111 -241 -10 -22 -19 -43
-19 -47 0 -4 63 -39 141 -78 88 -45 151 -83 168 -103 14 -17 54 -61 87 -97 34
-36 78 -85 98 -109 20 -24 49 -55 66 -70 16 -15 30 -30 30 -35 0 -5 24 -34 54
-65 81 -85 168 -181 191 -210 11 -13 44 -49 73 -79 28 -29 52 -56 52 -59 0 -3
24 -31 54 -62 30 -32 63 -68 74 -81 37 -48 42 -23 42 222 1 398 48 968 114
1377 45 280 100 546 151 735 15 55 31 118 36 140 5 22 13 49 18 60 5 11 21 61
36 110 15 50 33 104 41 122 8 17 14 37 14 45 1 7 9 31 20 53 11 22 19 45 20
51 0 7 9 31 20 55 11 24 20 50 20 57 0 10 -111 12 -537 10 l-538 -3 -3 -57
c-2 -32 -6 -58 -9 -58 -22 0 -325 175 -331 192 -2 4 -8 8 -14 8 -6 0 -23 10
-38 23 -15 12 -37 29 -50 37 -12 8 -47 33 -76 55 -29 22 -79 58 -110 80 -31
22 -62 45 -68 50 -6 6 -38 28 -71 51 -33 22 -404 292 -825 600 -421 308 -776
567 -790 576 -14 9 -54 19 -90 22 -36 4 -81 11 -100 16 -19 5 -80 16 -135 25
-55 8 -152 24 -215 35 -63 11 -160 27 -215 35 -55 9 -116 20 -135 25 -19 5
-62 12 -95 15 -33 4 -76 11 -95 15 -19 5 -78 16 -130 24 -380 60 -373 58 -409
109 -33 44 -123 82 -144 60z"/>
<path d="M11910 21683 c-87 -33 -128 -147 -81 -224 30 -50 68 -69 135 -69 56
0 61 2 97 39 42 45 54 83 44 141 -13 78 -122 141 -195 113z"/>
<path d="M15315 21675 c-105 -57 -125 -162 -45 -246 35 -37 40 -39 96 -39 97
0 154 55 154 148 0 106 -117 184 -205 137z"/>
<path d="M8958 20173 c-1 -5 -59 -36 -128 -71 -94 -47 -134 -72 -160 -104 -19
-23 -57 -66 -84 -95 -27 -28 -56 -62 -65 -73 -9 -12 -42 -47 -73 -79 -32 -32
-58 -61 -58 -64 0 -4 -24 -31 -52 -62 -71 -74 -169 -182 -188 -207 -8 -11 -41
-45 -72 -77 -32 -32 -58 -61 -58 -65 0 -4 -27 -35 -60 -68 -33 -33 -60 -64
-60 -68 0 -5 -11 -20 -23 -32 -20 -20 -25 -38 -30 -112 -8 -115 -2 -143 41
-188 33 -34 72 -51 72 -30 0 4 17 26 38 49 20 22 62 71 92 108 30 37 65 79 78
94 12 14 26 31 30 36 24 33 109 131 120 138 6 4 12 12 12 17 0 4 15 24 33 43
17 19 39 43 47 53 48 60 117 140 128 147 6 4 12 13 12 19 0 6 10 20 23 32 12
12 47 53 77 90 30 38 70 84 88 102 17 19 32 37 32 41 0 9 43 47 70 61 14 7 43
23 65 37 22 13 51 30 65 37 14 7 27 15 30 19 3 3 20 12 38 20 17 8 32 17 32
21 0 5 6 8 14 8 26 0 27 19 3 57 -13 21 -36 63 -51 93 -16 30 -33 61 -38 68
-11 13 -34 16 -40 5z"/>
<path d="M18301 20089 c-65 -117 -68 -129 -42 -136 12 -3 21 -8 21 -12 0 -3
26 -19 58 -36 31 -16 60 -35 65 -42 4 -6 21 -14 37 -18 17 -4 30 -11 30 -16 0
-5 15 -15 33 -23 18 -7 45 -29 61 -47 43 -54 98 -117 134 -155 17 -19 32 -37
32 -40 0 -4 15 -23 33 -43 17 -20 50 -59 72 -86 22 -27 51 -61 65 -76 14 -15
33 -39 44 -53 10 -14 30 -39 45 -54 14 -16 40 -45 56 -66 17 -21 45 -54 62
-73 18 -19 36 -40 40 -48 8 -13 94 -114 126 -147 9 -10 17 -22 17 -26 0 -5 18
-25 39 -45 22 -20 42 -46 46 -57 10 -30 38 -24 84 18 l41 37 0 108 c0 106 -8
143 -36 160 -8 4 -14 12 -14 18 0 5 -22 32 -49 59 -27 28 -59 62 -70 77 -30
37 -158 178 -208 229 -24 23 -43 45 -43 49 0 3 -23 29 -51 58 -28 29 -60 63
-71 77 -30 37 -136 155 -195 216 -29 29 -53 56 -53 58 0 11 -84 96 -96 96 -7
0 -14 3 -16 8 -4 9 -111 62 -126 62 -7 0 -12 4 -12 10 0 5 -18 15 -40 21 -22
7 -40 16 -40 21 0 4 -6 8 -14 8 -7 0 -37 -41 -65 -91z"/>
<path d="M9090 19927 c-14 -6 -29 -15 -35 -20 -14 -12 -72 -46 -125 -75 -25
-13 -47 -27 -50 -31 -3 -4 -18 -13 -35 -20 -16 -6 -45 -31 -62 -54 -18 -23
-46 -58 -63 -77 -16 -19 -42 -50 -57 -69 -16 -18 -43 -49 -60 -69 -18 -20 -33
-39 -33 -43 0 -4 -17 -24 -37 -45 -46 -47 -107 -121 -112 -136 -2 -6 -19 -24
-37 -41 -19 -16 -34 -33 -34 -38 0 -5 -16 -24 -35 -42 -19 -17 -35 -35 -35
-40 0 -4 -12 -20 -27 -35 -16 -16 -44 -48 -62 -72 -19 -25 -41 -49 -48 -53 -7
-4 -13 -12 -13 -18 0 -5 -16 -24 -35 -42 -19 -17 -35 -37 -35 -44 0 -7 -6 -16
-13 -20 -7 -4 -27 -26 -45 -48 -31 -39 -41 -70 -23 -77 10 -3 65 -49 134 -110
23 -21 49 -38 57 -38 14 0 90 80 90 94 0 3 8 15 18 25 27 31 44 52 89 111 24
30 51 65 60 76 10 12 27 34 38 50 11 15 36 47 55 70 19 23 44 54 55 68 11 15
25 32 30 39 6 6 23 30 39 52 17 22 36 44 43 48 7 4 13 13 13 19 0 6 7 18 15
27 8 9 37 43 63 76 26 33 52 65 57 72 6 7 18 23 27 35 51 69 77 93 142 136 39
26 76 49 81 52 9 4 155 99 163 106 4 2 -17 41 -48 89 -10 17 -31 51 -46 78
-30 52 -28 51 -64 34z"/>
<path d="M18193 19894 c-15 -24 -43 -67 -61 -96 -18 -28 -32 -57 -30 -65 2 -8
17 -22 33 -31 17 -9 33 -21 36 -25 6 -9 35 -27 79 -49 14 -7 29 -18 33 -25 4
-7 13 -13 18 -13 6 0 25 -11 43 -25 18 -14 36 -25 40 -25 12 0 108 -110 130
-149 5 -9 15 -20 23 -24 7 -4 13 -14 13 -20 0 -7 8 -20 18 -28 18 -17 31 -33
76 -94 17 -22 36 -44 43 -48 7 -4 13 -13 13 -19 0 -6 7 -18 15 -27 9 -9 36
-43 61 -76 25 -33 52 -64 60 -68 8 -4 14 -14 14 -22 0 -8 6 -18 13 -22 8 -4
18 -15 23 -24 10 -18 59 -80 87 -110 9 -10 17 -22 17 -25 0 -3 20 -30 45 -58
25 -29 45 -56 45 -60 0 -4 13 -19 28 -34 16 -15 31 -35 35 -45 3 -9 14 -17 23
-17 15 0 86 51 125 89 8 9 29 27 45 41 43 36 48 49 30 68 -24 26 -56 64 -116
138 -30 37 -65 78 -77 90 -13 12 -23 24 -23 27 0 4 -15 22 -32 41 -18 18 -58
64 -88 102 -30 37 -65 78 -77 90 -13 12 -23 26 -23 32 0 6 -3 12 -7 14 -7 3
-68 71 -143 161 -14 17 -35 40 -47 52 -13 12 -23 26 -23 29 0 4 -28 40 -62 79
-35 39 -66 76 -70 82 -29 40 -67 75 -90 80 -16 4 -28 11 -28 15 0 4 -24 20
-52 35 -29 15 -60 33 -68 40 -8 7 -25 16 -37 19 -13 4 -23 11 -23 16 0 4 -13
13 -30 18 -28 10 -31 9 -57 -34z"/>
<path d="M9220 19680 c-14 -11 -30 -24 -37 -30 -7 -5 -15 -10 -18 -10 -3 0
-47 -27 -97 -60 -49 -33 -93 -60 -97 -60 -3 0 -17 -14 -31 -31 -14 -17 -33
-40 -44 -52 -10 -12 -30 -38 -45 -57 -14 -19 -32 -39 -38 -43 -7 -4 -13 -12
-13 -17 0 -6 -8 -18 -17 -28 -10 -11 -27 -31 -37 -46 -11 -15 -27 -36 -35 -46
-42 -49 -48 -57 -54 -73 -3 -9 -11 -17 -16 -17 -5 0 -18 -15 -30 -32 -40 -64
-46 -72 -73 -99 -16 -16 -28 -32 -28 -36 0 -4 -12 -19 -25 -32 -14 -13 -25
-28 -25 -35 0 -6 -9 -17 -20 -24 -11 -7 -20 -18 -20 -25 -1 -6 -14 -23 -30
-37 -17 -13 -30 -28 -30 -33 0 -5 -10 -22 -22 -37 -65 -80 -80 -98 -107 -136
l-30 -41 27 -24 c65 -60 172 -139 187 -139 18 0 64 48 65 68 0 6 5 12 10 12 6
0 14 8 17 18 6 16 36 58 66 92 8 8 17 23 20 33 4 9 11 17 17 17 5 0 10 5 10
11 0 11 32 55 65 90 8 9 15 19 15 23 0 5 18 31 40 60 50 64 48 61 90 121 19
28 38 55 42 60 5 6 55 73 112 150 79 107 115 147 152 170 27 16 51 32 54 35
12 12 89 70 95 70 3 0 11 5 18 10 7 6 33 27 59 46 47 36 47 36 30 63 -9 14
-20 29 -25 32 -5 4 -14 16 -20 27 -36 63 -74 112 -87 112 -8 -1 -26 -10 -40
-20z"/>
<path d="M18051 19678 c-27 -52 -99 -159 -113 -168 -4 -3 2 -12 13 -20 12 -8
75 -54 140 -103 66 -48 138 -99 159 -113 22 -15 40 -33 40 -40 0 -7 6 -17 13
-21 6 -4 18 -17 25 -28 7 -11 22 -35 33 -52 12 -18 25 -33 30 -33 5 0 9 -7 9
-15 0 -7 6 -18 13 -22 6 -4 18 -17 25 -28 7 -11 22 -35 33 -52 12 -18 25 -33
30 -33 5 0 9 -5 9 -11 0 -9 13 -29 65 -97 6 -7 17 -21 25 -31 8 -10 22 -29 30
-43 17 -29 57 -82 83 -109 9 -11 17 -22 17 -25 0 -11 94 -134 102 -134 4 0 8
-5 8 -11 0 -20 71 -109 87 -109 8 0 28 10 43 23 15 12 37 29 49 37 13 8 34 25
48 38 14 12 36 30 49 39 24 15 33 43 14 43 -5 0 -10 6 -10 13 0 7 -8 20 -17
29 -10 9 -38 43 -63 77 -24 34 -48 61 -52 61 -5 0 -8 5 -8 11 0 6 -20 35 -45
63 -25 29 -45 56 -45 60 0 4 -13 20 -30 36 -16 16 -30 32 -30 35 0 7 -80 109
-120 153 -16 19 -30 37 -30 40 0 7 -32 48 -63 82 -8 8 -33 42 -57 75 -24 33
-50 67 -59 77 -9 9 -27 31 -41 49 -40 53 -120 129 -136 129 -4 0 -22 11 -40
25 -18 14 -37 25 -43 25 -6 0 -11 4 -11 8 0 5 -16 14 -35 22 -19 7 -36 19 -39
27 -3 7 -12 13 -19 13 -8 0 -20 7 -27 15 -18 22 -45 18 -59 -7z"/>
<path d="M9335 19420 c-44 -33 -85 -63 -90 -67 -44 -34 -85 -63 -89 -63 -14 0
-126 -110 -126 -124 0 -7 -49 -76 -61 -86 -3 -3 -12 -16 -19 -30 -12 -23 -69
-98 -97 -128 -7 -7 -16 -24 -19 -38 -3 -13 -10 -24 -15 -24 -9 0 -99 -123 -99
-136 0 -5 -9 -15 -20 -22 -11 -7 -20 -16 -20 -22 0 -5 -10 -20 -23 -34 -12
-13 -29 -37 -37 -52 -8 -16 -22 -36 -30 -45 -25 -27 -64 -80 -80 -107 -8 -14
-23 -34 -32 -44 -30 -30 -22 -55 32 -95 147 -112 169 -122 191 -80 7 12 15 24
18 27 10 8 125 183 133 203 4 9 12 17 18 17 5 0 10 5 10 11 0 6 11 25 25 43
14 18 25 38 25 44 0 6 3 12 8 14 9 4 62 74 62 83 0 3 18 30 40 60 22 30 40 58
40 64 0 5 3 11 8 13 4 2 38 48 75 103 37 55 85 114 108 130 22 17 45 35 52 41
6 6 50 41 97 79 47 38 91 74 97 80 7 5 23 19 37 29 l24 20 -44 55 c-25 31 -52
66 -62 77 -9 12 -24 31 -32 43 -8 11 -17 21 -20 20 -3 0 -41 -27 -85 -59z"/>
<path d="M17881 19430 c-19 -27 -47 -64 -62 -82 -16 -18 -34 -39 -40 -46 -9
-10 -6 -19 12 -38 12 -13 26 -24 31 -24 5 0 22 -13 38 -30 16 -16 34 -30 40
-30 6 0 13 -6 16 -14 3 -7 26 -28 52 -47 26 -18 51 -39 55 -46 4 -7 12 -13 17
-13 5 0 31 -22 57 -49 55 -56 66 -68 83 -102 7 -13 16 -26 19 -29 10 -8 85
-124 93 -142 4 -10 12 -18 18 -18 5 0 10 -4 10 -10 0 -5 17 -35 38 -66 20 -31
42 -64 47 -73 6 -9 16 -20 23 -24 6 -4 12 -15 12 -23 0 -8 7 -17 15 -20 8 -4
15 -11 15 -17 0 -5 11 -25 25 -43 14 -18 25 -35 25 -39 0 -7 38 -62 57 -82 6
-7 15 -22 18 -33 3 -11 10 -20 14 -20 5 0 14 -14 21 -30 16 -39 51 -48 83 -23
14 10 33 24 43 31 142 96 154 111 114 147 -11 10 -20 24 -20 30 0 7 -7 15 -15
19 -8 3 -15 11 -15 17 0 6 -18 33 -40 59 -22 26 -40 52 -40 58 0 5 -7 12 -15
16 -8 3 -15 10 -15 17 0 10 -32 55 -65 90 -8 9 -15 19 -15 23 0 8 -68 98 -95
127 -8 9 -15 19 -15 23 0 7 -32 50 -88 121 -4 6 -23 34 -42 63 -18 28 -37 52
-42 52 -4 0 -8 7 -8 15 0 9 -7 18 -15 21 -8 4 -15 11 -15 18 0 14 -66 84 -104
111 -15 11 -33 25 -40 30 -6 6 -34 26 -61 45 -28 19 -54 38 -60 43 -32 26
-119 87 -124 87 -3 0 -21 -22 -40 -50z"/>
<path d="M9559 19237 c-15 -12 -44 -35 -64 -52 -21 -16 -47 -38 -59 -47 -12
-10 -48 -39 -81 -65 -32 -27 -67 -56 -77 -65 -10 -10 -22 -18 -28 -18 -5 0
-10 -7 -10 -15 0 -8 -3 -15 -7 -15 -5 0 -21 -23 -38 -50 -16 -27 -33 -50 -36
-50 -4 0 -12 -13 -19 -30 -7 -16 -16 -30 -20 -30 -4 0 -13 -13 -20 -30 -7 -16
-16 -30 -21 -30 -5 0 -9 -5 -9 -11 0 -6 -11 -25 -25 -43 -14 -18 -25 -36 -25
-39 0 -4 -8 -16 -17 -26 -29 -32 -40 -46 -53 -72 -7 -13 -16 -26 -19 -29 -12
-9 -61 -90 -61 -99 0 -5 -7 -11 -15 -15 -8 -3 -15 -10 -15 -16 0 -6 -18 -35
-40 -65 -22 -30 -40 -59 -40 -65 0 -5 -4 -10 -9 -10 -5 0 -13 -9 -16 -20 -3
-11 -13 -27 -21 -35 -14 -13 -12 -18 18 -45 18 -16 35 -30 39 -30 3 0 39 -22
80 -49 79 -53 103 -54 115 -6 3 14 10 25 15 25 7 0 20 20 51 80 7 14 16 28 21
31 10 7 30 40 52 87 8 17 19 32 24 32 5 0 11 8 15 18 7 21 34 67 64 109 12 17
22 36 22 42 0 6 5 11 10 11 6 0 10 5 10 12 0 6 11 26 25 44 14 18 25 37 25 43
0 6 4 11 8 11 5 0 14 16 22 35 8 19 17 35 22 35 4 0 14 15 22 34 8 18 40 56
72 82 33 27 76 65 96 84 90 84 181 166 194 173 15 9 19 33 7 39 -15 6 -133
146 -133 157 0 18 -23 12 -51 -12z"/>
<path d="M17695 19197 c-27 -34 -62 -74 -77 -88 -27 -25 -37 -49 -20 -49 5 0
31 -21 58 -47 28 -27 66 -61 85 -77 18 -15 59 -52 90 -82 31 -30 60 -54 63
-54 16 0 106 -120 106 -140 0 -6 4 -10 8 -10 5 0 16 -15 25 -32 10 -18 26 -46
37 -63 11 -16 27 -45 37 -62 9 -18 20 -33 25 -33 4 0 8 -7 8 -15 0 -9 6 -18
14 -21 8 -3 18 -19 21 -36 4 -16 12 -31 19 -34 7 -3 19 -20 26 -39 8 -19 17
-35 22 -35 4 0 8 -5 8 -11 0 -6 11 -25 25 -43 14 -18 25 -38 25 -44 0 -7 5
-12 10 -12 6 0 10 -5 10 -12 0 -6 11 -26 25 -44 14 -18 25 -37 25 -42 0 -17
52 -58 57 -44 3 6 9 12 14 12 9 0 82 45 106 65 6 5 30 21 52 35 23 13 41 29
41 35 0 5 -17 35 -38 65 -21 30 -41 63 -45 73 -3 9 -11 17 -17 17 -5 0 -10 5
-10 10 0 6 -18 35 -40 65 -22 30 -40 56 -40 59 0 8 -82 127 -102 150 -10 11
-18 26 -18 33 0 7 -5 13 -10 13 -6 0 -15 11 -20 25 -5 14 -14 25 -20 25 -5 0
-10 5 -10 10 0 11 -47 87 -67 108 -7 7 -13 17 -13 22 0 5 -6 15 -13 22 -7 7
-26 34 -42 59 -25 38 -94 104 -173 164 -7 5 -21 17 -31 25 -9 8 -35 28 -56 44
-22 17 -44 36 -48 43 -4 7 -14 13 -22 13 -8 0 -19 9 -25 20 -17 32 -32 24 -85
-43z"/>
<path d="M9760 19042 c-8 -2 -41 -30 -72 -61 -31 -31 -66 -63 -78 -72 -11 -9
-47 -40 -78 -69 -31 -29 -74 -67 -94 -86 -21 -19 -40 -45 -44 -59 -3 -14 -10
-25 -15 -25 -7 0 -20 -20 -51 -80 -7 -14 -16 -28 -21 -31 -10 -7 -30 -40 -52
-86 -8 -18 -20 -33 -25 -33 -6 0 -10 -5 -10 -10 0 -10 -48 -90 -61 -100 -3 -3
-12 -20 -20 -37 -8 -18 -17 -33 -20 -33 -4 0 -12 -15 -20 -32 -7 -18 -19 -37
-26 -41 -7 -4 -13 -15 -13 -22 0 -8 -4 -15 -8 -15 -5 0 -17 -17 -28 -37 -10
-20 -27 -50 -36 -67 -28 -52 -31 -48 92 -119 127 -73 123 -72 147 -32 7 11 32
54 55 95 24 41 48 84 55 95 7 11 20 36 29 55 9 19 20 37 23 40 4 3 27 39 50
80 23 41 46 82 52 90 5 8 15 26 22 40 37 76 102 155 257 309 l172 172 -23 26
c-100 109 -146 150 -159 145z"/>
<path d="M17483 18961 l-82 -86 184 -185 c101 -102 186 -195 190 -207 3 -13
10 -23 14 -23 5 0 14 -15 22 -32 7 -18 15 -35 18 -38 7 -6 30 -45 50 -85 8
-16 17 -32 21 -35 7 -5 21 -29 57 -100 10 -19 21 -36 26 -38 4 -2 7 -10 7 -17
0 -8 6 -18 14 -22 7 -4 19 -25 25 -45 7 -21 16 -38 21 -38 5 0 14 -16 21 -35
7 -19 17 -35 21 -35 4 0 8 -6 8 -12 0 -7 10 -26 23 -42 l23 -29 83 49 c45 27
93 55 105 61 47 26 51 40 22 83 -14 22 -26 44 -26 50 0 5 -4 10 -8 10 -5 0
-16 15 -26 33 -20 38 -32 57 -71 117 -45 68 -53 82 -70 118 -8 17 -19 32 -23
32 -4 0 -12 10 -18 23 -32 64 -46 87 -53 87 -4 0 -13 16 -21 35 -8 19 -17 35
-22 35 -4 0 -8 5 -8 12 0 6 -10 25 -23 42 -12 17 -29 44 -37 60 -8 16 -39 49
-69 75 -30 25 -72 62 -92 81 -105 99 -193 176 -207 181 -12 5 -40 -18 -99 -80z"/>
<path d="M9767 18661 c-103 -103 -187 -196 -187 -205 0 -9 -4 -16 -9 -16 -5 0
-14 -15 -22 -32 -7 -18 -15 -35 -18 -38 -4 -3 -13 -18 -21 -35 -8 -16 -21 -36
-27 -43 -7 -7 -13 -20 -13 -28 0 -8 -4 -14 -9 -14 -5 0 -15 -16 -22 -35 -7
-19 -16 -35 -19 -35 -4 0 -12 -16 -20 -35 -8 -19 -17 -35 -21 -35 -3 0 -13
-15 -20 -32 -7 -18 -19 -39 -26 -46 -7 -7 -13 -20 -13 -28 0 -8 -4 -14 -9 -14
-5 0 -14 -15 -22 -32 -7 -18 -15 -35 -18 -38 -31 -28 -39 -87 -13 -97 9 -4 54
-28 99 -54 104 -60 121 -66 130 -42 4 10 9 20 12 23 3 3 21 34 39 70 18 36 60
115 92 175 32 61 74 139 92 175 18 36 36 67 41 68 4 2 7 10 7 17 0 8 30 47 68
88 37 40 96 107 132 147 36 40 72 81 80 90 8 9 33 36 55 59 l40 42 -89 84
c-49 47 -92 85 -95 85 -4 0 -91 -85 -194 -189z"/>
<path d="M17287 18765 l-88 -84 53 -57 c87 -93 108 -116 167 -183 31 -35 72
-80 91 -100 42 -44 47 -50 141 -231 13 -25 26 -47 29 -50 3 -3 18 -32 34 -65
16 -33 32 -62 35 -65 3 -3 29 -51 56 -107 28 -56 55 -104 61 -107 6 -2 35 9
65 24 30 16 64 34 76 39 48 22 103 62 103 75 0 8 -6 21 -13 28 -7 7 -18 24
-24 38 -7 14 -30 57 -52 95 -22 39 -48 84 -57 100 -9 17 -20 32 -23 35 -6 5
-15 21 -74 133 -16 31 -34 57 -38 57 -4 0 -10 14 -14 30 -4 17 -11 30 -16 30
-5 0 -9 4 -9 10 0 28 -73 113 -227 268 -95 95 -176 172 -180 172 -4 -1 -48
-39 -96 -85z"/>
<path d="M10100 18598 c-150 -167 -195 -217 -238 -262 -50 -52 -63 -71 -88
-128 -10 -21 -20 -38 -24 -38 -5 0 -11 -12 -15 -27 -3 -15 -10 -30 -13 -33 -4
-3 -23 -36 -42 -75 -19 -38 -37 -72 -40 -75 -3 -3 -19 -32 -36 -65 -17 -33
-45 -86 -62 -118 -18 -31 -32 -65 -32 -75 0 -12 36 -34 116 -74 107 -53 144
-62 144 -35 0 14 93 201 103 205 4 2 7 9 7 16 0 16 123 260 141 280 8 8 25 30
39 47 14 18 41 51 60 74 19 24 44 55 55 69 11 15 25 32 31 39 6 6 41 50 78 96
l68 84 -33 29 c-19 16 -60 51 -91 78 -31 28 -60 50 -65 50 -4 0 -33 -28 -63
-62z"/>
<path d="M17139 18629 c-19 -17 -59 -51 -90 -76 l-56 -46 24 -36 c13 -20 31
-40 39 -44 8 -4 14 -12 14 -17 0 -5 15 -25 33 -44 17 -20 48 -56 67 -82 19
-26 45 -57 58 -69 12 -12 22 -27 22 -33 0 -6 6 -15 13 -19 30 -19 88 -106 135
-205 29 -59 52 -111 52 -117 0 -6 4 -11 9 -11 5 0 12 -13 16 -30 4 -16 11 -30
15 -30 5 0 15 -18 21 -40 7 -22 15 -40 19 -40 4 0 13 -18 20 -40 7 -22 17 -40
22 -40 4 0 8 -6 8 -14 0 -8 6 -16 13 -19 16 -6 234 101 241 119 5 13 -24 84
-35 84 -4 0 -10 13 -14 30 -4 16 -12 33 -19 37 -7 5 -19 25 -25 46 -7 20 -17
37 -22 37 -5 0 -9 6 -9 13 0 13 -48 109 -59 117 -4 3 -13 21 -21 40 -8 19 -16
37 -19 40 -3 3 -17 28 -31 55 -33 69 -88 136 -227 282 -29 31 -53 57 -53 60 0
7 -114 123 -121 123 -3 0 -21 -14 -40 -31z"/>
<path d="M10344 18454 c-10 -14 -28 -36 -39 -49 -11 -14 -33 -41 -50 -60 -16
-20 -42 -51 -57 -68 -16 -17 -28 -35 -28 -40 0 -5 -16 -23 -35 -41 -19 -19
-35 -36 -35 -39 0 -3 -13 -20 -29 -37 -16 -18 -35 -44 -42 -58 -8 -15 -16 -29
-19 -32 -10 -10 -60 -116 -60 -128 0 -6 -4 -12 -9 -12 -5 0 -15 -17 -22 -37
-6 -21 -15 -40 -18 -43 -12 -10 -61 -117 -61 -133 0 -10 -4 -17 -8 -17 -4 0
-14 -17 -21 -37 -8 -21 -19 -41 -25 -45 -11 -7 19 -48 36 -48 9 0 94 -37 153
-67 62 -31 65 -28 162 197 8 19 23 53 33 75 10 22 30 65 44 96 14 31 32 62 41
69 8 7 15 16 15 21 0 5 8 17 18 27 9 10 24 29 32 42 8 12 25 35 38 50 12 15
22 31 22 34 0 3 7 14 15 24 37 40 95 122 95 132 0 5 4 10 8 10 11 0 62 78 62
94 0 6 -9 18 -21 26 -12 8 -52 39 -89 68 -38 28 -72 52 -78 52 -5 0 -18 -12
-28 -26z"/>
<path d="M16916 18445 c-22 -19 -42 -35 -45 -35 -3 0 -26 -18 -50 -39 l-44
-37 19 -30 c10 -16 21 -31 24 -34 3 -3 22 -27 41 -55 18 -27 37 -54 42 -60 44
-58 95 -127 107 -145 15 -22 92 -125 109 -146 5 -6 12 -21 16 -35 4 -13 18
-48 31 -77 13 -29 24 -57 24 -62 0 -6 4 -10 9 -10 5 0 12 -16 15 -35 4 -19 11
-35 15 -35 5 0 14 -20 21 -45 7 -25 16 -45 20 -45 4 0 11 -15 16 -32 7 -23 17
-34 31 -36 19 -3 92 28 221 91 18 9 22 16 17 37 -4 14 -13 32 -21 41 -8 8 -14
19 -14 24 0 8 -36 86 -103 225 -12 25 -25 47 -28 50 -3 3 -12 22 -18 43 -7 20
-16 37 -21 37 -5 0 -11 14 -15 31 -4 17 -13 33 -21 36 -8 3 -14 11 -14 19 0 7
-6 17 -13 21 -7 4 -20 17 -28 29 -15 22 -92 114 -121 146 -10 10 -18 22 -18
26 0 5 -10 18 -22 29 -13 12 -43 49 -68 82 -25 33 -52 60 -60 61 -8 0 -33 -16
-54 -35z"/>
<path d="M10580 18306 c0 -9 -4 -16 -8 -16 -9 0 -62 -76 -62 -88 0 -4 -9 -13
-20 -20 -11 -7 -20 -19 -20 -27 0 -8 -4 -15 -9 -15 -8 0 -47 -55 -60 -84 -2
-5 -11 -16 -20 -26 -42 -46 -61 -73 -61 -86 0 -8 -5 -14 -10 -14 -6 0 -15 -11
-20 -25 -5 -14 -14 -25 -18 -25 -10 0 -62 -109 -62 -129 0 -6 -4 -11 -9 -11
-5 0 -14 -20 -20 -45 -6 -25 -16 -45 -21 -45 -6 0 -10 -5 -10 -11 0 -13 -34
-92 -60 -141 -34 -64 -31 -70 81 -116 129 -55 157 -61 165 -36 7 22 23 59 53
125 11 25 24 60 27 77 4 18 10 32 14 32 5 0 11 15 15 33 4 17 14 43 23 57 26
39 40 63 54 90 7 14 18 29 25 33 7 4 13 12 13 16 0 5 34 59 75 120 41 62 75
114 75 117 0 2 18 30 40 61 22 32 40 63 40 68 0 8 -175 133 -202 143 -4 2 -8
-3 -8 -12z"/>
<path d="M16670 18264 c-41 -30 -85 -59 -97 -66 -22 -11 -32 -38 -14 -38 5 0
14 -13 21 -30 7 -16 16 -30 21 -30 5 0 9 -5 9 -10 0 -11 47 -87 67 -108 6 -6
15 -21 18 -32 3 -11 10 -20 15 -20 4 0 13 -13 19 -30 5 -16 15 -30 20 -30 6 0
11 -5 11 -12 0 -6 11 -26 25 -44 14 -18 25 -37 25 -43 0 -6 5 -11 10 -11 6 0
10 -5 10 -12 0 -6 11 -26 25 -44 14 -18 25 -36 25 -41 1 -4 9 -26 20 -48 11
-22 19 -46 20 -53 0 -8 6 -26 14 -40 27 -54 55 -118 61 -144 9 -36 29 -51 57
-43 77 23 209 81 219 97 8 12 -20 88 -32 88 -4 0 -11 14 -14 32 -4 18 -16 48
-25 68 -10 19 -28 58 -40 85 -11 28 -27 62 -35 77 -8 14 -15 31 -15 37 0 7
-18 36 -40 66 -22 30 -40 59 -40 65 0 5 -3 10 -7 10 -5 1 -28 30 -53 66 -25
36 -64 89 -87 119 -24 29 -43 57 -43 60 0 4 -6 13 -12 20 -7 8 -26 32 -42 54
-17 23 -32 41 -35 40 -3 0 -40 -25 -81 -55z"/>
<path d="M10810 18161 c0 -9 -74 -125 -90 -141 -3 -3 -12 -18 -20 -35 -8 -16
-17 -32 -20 -35 -15 -14 -100 -148 -100 -157 0 -6 -7 -13 -15 -17 -8 -3 -15
-10 -15 -16 0 -6 -15 -32 -34 -58 -18 -27 -37 -63 -41 -80 -3 -18 -10 -32 -14
-32 -4 0 -14 -25 -21 -55 -7 -30 -17 -55 -22 -55 -4 0 -8 -6 -8 -13 0 -7 -9
-29 -20 -49 -25 -48 -37 -118 -20 -118 6 0 26 -6 43 -14 151 -64 209 -75 215
-41 2 11 12 38 22 60 10 22 21 57 25 78 4 20 11 37 16 37 4 0 11 15 15 34 3
19 21 58 40 86 19 29 37 63 40 76 3 13 10 24 15 24 5 0 15 15 24 33 22 47 75
140 90 157 7 8 17 27 20 43 4 15 11 27 16 27 5 0 14 11 19 25 5 13 20 42 34
64 l25 39 -32 24 c-18 13 -57 39 -87 57 -30 19 -65 40 -77 49 -14 9 -23 10
-23 3z"/>
<path d="M16485 18140 c-22 -16 -45 -29 -52 -30 -6 0 -13 -4 -15 -8 -1 -4 -24
-20 -50 -35 -49 -28 -58 -45 -35 -69 6 -7 20 -29 29 -48 20 -38 40 -72 49 -80
3 -3 11 -20 18 -37 8 -18 17 -33 22 -33 5 0 9 -6 9 -13 0 -7 20 -46 45 -86 25
-40 45 -77 45 -82 0 -5 4 -9 8 -9 4 0 14 -16 21 -35 7 -19 17 -35 22 -35 5 0
9 -5 9 -10 0 -6 9 -29 20 -53 22 -49 47 -116 62 -169 6 -21 14 -38 19 -38 4 0
9 -10 11 -22 4 -28 37 -28 112 1 28 11 72 28 98 38 49 19 66 39 48 57 -5 5
-10 16 -10 23 0 7 -11 36 -24 65 -13 29 -27 68 -31 86 -3 17 -11 32 -16 32 -5
0 -9 7 -9 17 0 16 -49 124 -61 133 -3 3 -14 19 -23 35 -9 17 -24 42 -34 57
-38 59 -82 124 -92 135 -5 7 -15 24 -22 38 -6 14 -15 25 -20 25 -4 0 -8 6 -8
13 0 8 -9 24 -20 37 -11 13 -20 27 -20 31 0 4 -6 14 -14 21 -7 8 -21 28 -30
46 -9 18 -18 32 -19 32 -1 -1 -20 -14 -42 -30z"/>
<path d="M11038 17993 c-7 -15 -18 -31 -25 -36 -6 -4 -14 -21 -18 -37 -4 -17
-11 -30 -16 -30 -5 0 -14 -12 -20 -27 -5 -14 -23 -46 -39 -70 -16 -24 -32 -54
-36 -68 -3 -13 -12 -26 -19 -29 -7 -2 -16 -18 -20 -35 -4 -17 -10 -31 -13 -31
-4 0 -22 -27 -40 -60 -18 -33 -37 -62 -43 -65 -5 -4 -9 -14 -9 -23 0 -9 -7
-30 -15 -45 -8 -16 -19 -47 -25 -70 -10 -37 -22 -68 -51 -128 -4 -9 -4 -22 1
-29 10 -16 238 -93 256 -86 7 3 18 24 24 48 6 24 17 57 25 73 7 17 16 46 20
65 4 19 10 37 14 40 10 8 61 114 61 127 0 6 4 13 8 15 4 2 17 21 28 43 11 22
58 113 104 202 46 90 82 165 79 167 -2 2 -52 29 -111 60 l-108 57 -12 -28z"/>
<path d="M16230 17988 c-36 -18 -67 -35 -70 -38 -3 -3 -24 -14 -48 -24 -23
-11 -41 -22 -40 -25 2 -3 18 -37 37 -76 18 -38 37 -72 41 -75 4 -3 13 -22 19
-42 7 -21 16 -38 21 -38 4 0 11 -12 15 -27 3 -15 24 -57 46 -94 21 -37 39 -72
39 -78 0 -6 4 -11 8 -11 5 0 14 -18 21 -40 6 -22 16 -40 20 -40 5 0 14 -23 21
-50 7 -28 16 -52 20 -55 5 -3 11 -23 15 -45 4 -22 11 -40 16 -40 5 0 9 -10 9
-22 0 -50 13 -54 92 -29 40 13 87 29 105 37 17 8 38 14 46 14 8 0 20 7 27 15
10 12 8 26 -10 72 -12 32 -28 74 -35 93 -31 84 -68 170 -74 170 -4 0 -12 12
-19 28 -7 15 -26 50 -42 77 -17 28 -33 58 -36 68 -4 9 -10 17 -14 17 -4 0 -11
11 -14 24 -3 14 -12 31 -19 38 -7 7 -18 24 -24 38 -7 14 -26 48 -43 75 -17 28
-33 58 -37 68 -3 9 -9 17 -13 17 -5 0 -10 7 -12 15 -2 13 -15 10 -68 -17z"/>
<path d="M11271 17847 c-11 -24 -21 -48 -21 -54 0 -6 -3 -13 -8 -15 -10 -4
-142 -270 -142 -286 0 -6 -4 -12 -9 -12 -5 0 -14 -12 -20 -27 -6 -16 -23 -50
-39 -78 -16 -27 -33 -68 -37 -90 -4 -22 -11 -42 -15 -45 -5 -3 -14 -33 -21
-68 -15 -74 -15 -75 71 -93 30 -6 60 -15 67 -21 6 -5 36 -12 65 -15 l54 -5 13
58 c7 33 18 73 26 89 63 136 85 188 91 210 3 14 10 25 14 25 5 0 12 15 15 33
4 17 16 48 26 67 31 57 87 184 94 213 4 15 11 27 16 27 5 0 9 6 9 13 0 9 -152
89 -220 115 -4 2 -17 -17 -29 -41z"/>
<path d="M15961 17849 c-41 -21 -79 -39 -85 -39 -6 0 -20 -7 -30 -15 -19 -14
-19 -16 9 -85 15 -38 32 -70 36 -70 4 0 11 -14 14 -32 4 -18 16 -48 25 -68 10
-19 26 -53 35 -75 10 -22 26 -58 35 -80 10 -22 21 -50 25 -62 3 -13 10 -23 15
-23 4 0 11 -12 15 -27 3 -15 15 -45 25 -68 10 -22 21 -59 25 -82 4 -24 11 -43
16 -43 5 0 9 -9 9 -19 0 -27 17 -30 75 -14 28 8 77 22 110 30 79 21 88 29 80
71 -3 19 -10 42 -15 51 -5 9 -18 49 -31 89 -12 40 -29 83 -38 95 -9 12 -46 81
-81 152 -35 72 -68 132 -72 133 -4 2 -8 8 -8 14 0 20 -95 208 -105 207 -5 0
-43 -18 -84 -40z"/>
<path d="M11530 17745 c-5 -14 -13 -37 -16 -50 -3 -14 -10 -25 -14 -25 -5 0
-12 -10 -15 -22 -7 -22 -16 -44 -64 -150 -11 -26 -21 -52 -21 -58 0 -5 -4 -10
-9 -10 -5 0 -14 -21 -21 -47 -6 -26 -15 -50 -19 -53 -12 -9 -48 -84 -56 -118
-3 -18 -10 -32 -15 -32 -4 0 -14 -31 -21 -70 -7 -38 -16 -70 -21 -70 -5 0 -3
-6 4 -13 17 -17 203 -66 254 -67 18 0 23 8 29 47 4 26 13 56 21 67 8 11 14 26
14 34 0 7 8 32 19 55 10 23 22 57 26 75 3 17 10 32 14 32 4 0 13 22 20 50 7
27 17 52 22 56 5 3 9 13 9 22 0 9 6 29 14 44 8 14 19 43 26 65 7 21 16 43 20
48 4 6 13 31 20 58 7 26 17 50 22 53 12 7 -14 20 -112 59 -41 16 -79 32 -84
37 -18 15 -36 8 -46 -17z"/>
<path d="M15760 17756 c-14 -7 -62 -28 -108 -46 -92 -36 -89 -31 -51 -117 11
-23 19 -49 19 -57 0 -9 4 -16 9 -16 5 0 14 -22 21 -50 7 -27 15 -50 19 -50 4
0 13 -25 20 -55 7 -30 16 -55 21 -55 4 0 11 -16 14 -35 4 -19 10 -35 15 -35 4
0 13 -25 20 -55 7 -30 16 -55 20 -55 5 0 14 -27 22 -60 7 -33 17 -60 21 -60 4
0 8 -11 8 -25 0 -30 17 -32 105 -9 33 8 80 20 105 26 61 14 69 22 60 61 -16
67 -44 147 -52 147 -4 0 -8 8 -8 17 0 9 -13 44 -29 77 -68 144 -90 193 -96
219 -4 15 -11 27 -15 27 -4 0 -11 11 -14 25 -4 14 -22 58 -41 98 -19 41 -35
79 -35 85 0 15 -19 15 -50 -2z"/>
<path d="M11790 17645 c-6 -14 -10 -29 -10 -32 0 -3 -6 -19 -14 -36 -52 -121
-66 -156 -66 -170 0 -9 -4 -18 -9 -21 -5 -4 -15 -29 -22 -56 -7 -28 -16 -50
-20 -50 -4 0 -13 -25 -20 -55 -7 -30 -16 -55 -20 -55 -4 0 -11 -15 -14 -32 -4
-18 -12 -36 -16 -39 -13 -7 -39 -148 -29 -154 4 -3 39 -12 76 -20 202 -46 190
-47 198 10 4 24 11 47 16 50 4 3 14 29 20 57 7 29 16 58 20 63 4 6 13 35 20
65 7 30 16 60 20 65 4 6 11 25 15 43 4 18 13 45 21 60 7 15 16 46 20 69 3 24
10 43 14 43 4 0 13 27 20 60 7 33 18 60 23 60 26 0 -13 20 -88 44 -69 23 -94
33 -138 54 -4 2 -12 -9 -17 -23z"/>
<path d="M15530 17663 c-8 -3 -24 -9 -35 -13 -29 -14 -105 -40 -147 -52 -34
-9 -37 -13 -32 -37 4 -14 12 -38 19 -53 8 -15 17 -42 20 -60 4 -18 11 -37 15
-43 4 -5 13 -36 20 -67 7 -32 16 -58 20 -58 4 0 11 -19 14 -43 4 -23 13 -55
21 -71 8 -16 15 -36 15 -45 0 -9 6 -28 14 -43 8 -15 20 -52 27 -83 7 -30 16
-55 21 -55 4 0 8 -12 8 -26 0 -25 1 -26 53 -19 28 4 59 11 67 15 8 4 38 11 65
15 72 11 85 20 85 60 0 19 -4 35 -8 35 -4 0 -14 27 -21 60 -8 33 -17 60 -21
60 -4 0 -11 12 -14 28 -9 35 -44 129 -62 164 -8 14 -14 32 -14 40 -1 7 -9 31
-20 53 -11 22 -19 48 -20 57 0 9 -6 23 -13 30 -7 7 -18 35 -25 63 -7 27 -17
52 -21 55 -5 3 -10 12 -12 21 -2 9 -11 14 -19 12z"/>
<path d="M12041 17523 c-7 -32 -17 -62 -21 -68 -4 -5 -11 -26 -15 -45 -4 -19
-11 -40 -15 -45 -5 -6 -14 -33 -21 -60 -6 -28 -15 -54 -19 -60 -4 -5 -14 -37
-21 -70 -7 -33 -16 -62 -19 -65 -4 -3 -13 -30 -20 -60 -7 -30 -17 -58 -22 -61
-5 -3 -11 -28 -14 -56 -8 -59 -10 -58 121 -80 136 -23 138 -23 148 12 6 17 13
39 18 50 4 11 13 45 19 75 6 30 15 64 20 75 5 11 13 40 19 65 20 89 43 175 51
195 5 11 14 45 20 75 6 30 17 65 23 78 13 27 -2 42 -40 42 -12 0 -34 5 -50 11
-15 6 -48 17 -73 24 -25 7 -52 16 -61 19 -12 6 -18 -5 -28 -51z"/>
<path d="M15255 17570 c-26 -11 -142 -46 -178 -54 -27 -6 -28 -9 -22 -47 4
-22 13 -52 20 -67 7 -15 16 -51 20 -79 4 -29 10 -53 14 -53 4 0 13 -34 20 -75
8 -41 17 -75 20 -75 4 0 13 -34 20 -75 7 -41 16 -75 20 -75 5 0 12 -25 16 -55
3 -30 11 -55 16 -55 5 0 9 -7 9 -16 0 -13 6 -15 28 -10 15 3 69 13 121 21 52
9 101 20 108 27 14 11 18 68 5 68 -5 0 -15 26 -22 58 -7 31 -15 59 -19 62 -7
5 -32 83 -52 165 -6 21 -14 44 -18 50 -5 5 -14 36 -21 68 -7 31 -16 57 -20 57
-4 0 -11 19 -14 43 -4 23 -13 55 -21 71 -8 16 -15 35 -15 42 0 16 -6 16 -35 4z"/>
<path d="M12323 17484 c-6 -3 -17 -37 -24 -77 -7 -40 -15 -74 -19 -77 -7 -6
-23 -66 -48 -180 -9 -41 -20 -76 -24 -78 -3 -2 -12 -35 -19 -75 -7 -40 -16
-74 -21 -78 -4 -3 -11 -25 -14 -50 l-6 -45 83 -13 c46 -7 110 -15 142 -18 53
-4 57 -3 57 16 0 12 4 29 10 39 5 9 14 44 19 77 18 107 46 240 52 250 4 6 12
50 19 98 8 48 17 90 22 93 4 3 8 23 8 45 0 34 -3 39 -22 39 -13 0 -56 9 -97
20 -75 20 -96 22 -118 14z"/>
<path d="M14915 17474 c-27 -8 -67 -17 -89 -21 l-39 -6 7 -71 c4 -38 10 -73
15 -76 5 -3 14 -47 21 -97 7 -51 16 -93 20 -93 4 0 13 -42 20 -92 7 -51 15
-97 19 -103 3 -5 11 -35 16 -65 l10 -55 55 1 c30 1 92 7 137 14 87 13 106 28
84 67 -10 17 -26 76 -54 198 -6 28 -14 52 -18 55 -3 3 -12 35 -19 73 -7 37
-16 69 -20 72 -5 3 -11 28 -15 56 -4 28 -15 74 -25 102 -16 45 -22 52 -47 54
-15 1 -50 -5 -78 -13z"/>
<path d="M12590 17405 c0 -19 -4 -35 -10 -37 -5 -1 -15 -45 -21 -95 -7 -51
-16 -93 -20 -93 -4 0 -11 -26 -15 -57 -3 -32 -10 -62 -14 -68 -4 -5 -13 -50
-20 -98 -8 -48 -17 -90 -22 -93 -4 -3 -8 -23 -8 -44 0 -39 0 -39 48 -45 26 -3
71 -10 101 -15 30 -6 69 -10 88 -10 42 0 49 16 59 131 4 46 10 86 14 89 4 3
13 61 21 130 7 69 16 127 20 130 4 3 10 42 14 87 l7 81 -68 7 c-37 4 -92 13
-121 20 l-53 12 0 -32z"/>
<path d="M14738 17434 c-4 -3 -55 -13 -115 -22 l-108 -17 -3 -33 c-2 -18 1
-39 6 -45 6 -7 13 -48 17 -92 4 -44 11 -84 15 -90 4 -5 13 -64 20 -130 7 -66
17 -124 21 -129 5 -6 9 -22 9 -37 0 -14 3 -41 6 -58 5 -25 11 -31 33 -31 23 0
244 30 247 34 5 4 -18 134 -26 151 -9 19 -15 48 -58 282 -9 50 -20 95 -24 99
-4 3 -10 33 -14 65 -6 55 -12 67 -26 53z"/>
<path d="M12856 17342 c-3 -25 -6 -58 -6 -73 0 -16 -4 -29 -9 -29 -4 0 -11
-35 -15 -77 -4 -42 -13 -104 -21 -137 -7 -34 -16 -95 -20 -136 -4 -41 -12 -81
-17 -87 -6 -7 -8 -23 -4 -36 5 -22 12 -24 128 -33 68 -6 130 -9 139 -6 14 3
18 25 24 125 4 67 11 128 16 137 7 14 29 266 29 338 0 30 -1 30 -67 37 -38 4
-91 10 -119 14 l-52 8 -6 -45z"/>
<path d="M14425 17379 c-27 -4 -81 -10 -119 -14 l-68 -7 7 -116 c4 -65 11
-121 15 -127 4 -5 11 -67 15 -137 4 -71 11 -128 16 -128 5 0 9 -27 9 -59 0
-38 4 -60 13 -63 6 -3 68 0 137 6 l125 11 -3 70 c-2 39 -7 74 -12 80 -4 5 -13
61 -20 124 -7 63 -16 122 -20 130 -5 9 -14 63 -20 121 -6 57 -14 107 -18 110
-4 4 -29 3 -57 -1z"/>
<path d="M13136 17352 c-2 -4 -10 -84 -17 -177 -7 -94 -15 -172 -19 -175 -11
-8 -26 -271 -16 -278 5 -3 67 -7 136 -10 l127 -5 6 93 c4 51 7 137 7 192 0 60
4 98 10 98 7 0 10 43 8 123 l-3 122 -105 5 c-58 3 -110 8 -117 13 -6 4 -14 4
-17 -1z"/>
<path d="M14066 17343 l-99 -4 8 -240 c4 -132 10 -273 14 -312 l6 -72 115 0
c63 0 126 3 140 7 23 7 25 11 22 65 -2 32 -7 67 -12 78 -4 11 -15 103 -24 205
-25 284 -24 280 -49 278 -12 -1 -66 -4 -121 -5z"/>
<path d="M13410 17221 c0 -60 -4 -111 -8 -113 -5 -1 -12 -91 -16 -199 l-6
-196 130 -7 c71 -4 134 -4 140 -1 6 4 10 118 10 316 l0 309 -125 0 -125 0 0
-109z"/>
<path d="M13680 17020 l0 -310 23 -5 c12 -3 76 -2 142 2 l120 8 3 68 c2 42 -1
67 -8 67 -6 0 -10 29 -10 73 0 41 -3 149 -7 240 l-6 167 -129 0 -128 0 0 -310z"/>
<path d="M2996 14891 c-3 -4 -24 -11 -46 -15 -22 -3 -57 -15 -78 -26 -20 -11
-40 -20 -45 -20 -5 0 -35 -20 -67 -45 -112 -86 -194 -214 -222 -344 -17 -79
-23 -4628 -7 -4647 17 -20 56 -17 110 9 l48 22 1 218 0 217 263 0 263 0 12 48
c6 26 16 78 22 116 6 38 13 72 15 76 2 3 11 46 19 96 16 91 43 242 77 419 44
232 44 234 21 258 -11 12 -31 42 -44 67 -22 43 -23 55 -23 240 0 167 3 200 18
231 28 56 107 133 183 178 24 14 33 28 37 57 3 22 15 89 27 149 11 61 30 160
41 220 11 61 29 157 40 215 11 58 26 139 33 180 29 153 56 296 62 323 6 25 10
27 60 27 l54 0 -3 -407 c-4 -405 -10 -487 -45 -615 -6 -21 -7 -39 -4 -41 4 -2
41 0 82 4 41 4 87 8 101 8 29 1 32 10 65 211 7 47 22 139 34 205 34 199 60
355 76 455 8 52 17 103 20 113 3 10 12 61 21 115 8 53 17 111 20 129 4 26 0
34 -24 50 -47 30 -110 100 -135 150 -21 43 -23 65 -26 205 -2 91 1 179 7 209
12 57 87 163 127 181 13 6 24 14 24 18 0 12 148 81 227 106 46 14 130 29 205
36 l126 12 11 65 c6 36 18 111 26 166 8 55 20 124 26 153 l12 52 54 0 53 0 0
-230 0 -230 23 0 c73 0 293 -94 364 -155 110 -94 135 -174 124 -395 -9 -178
-18 -205 -90 -279 -107 -109 -247 -170 -466 -203 -38 -6 -73 -15 -77 -21 -3
-6 -10 -37 -13 -69 l-7 -59 -47 3 -46 3 -3 66 -3 66 -69 7 c-38 3 -95 13 -126
21 -31 8 -61 12 -65 9 -5 -3 -9 -44 -9 -92 0 -48 -6 -116 -14 -152 -8 -36 -17
-90 -20 -120 -4 -30 -16 -100 -26 -155 -27 -147 -48 -271 -60 -345 -6 -36 -19
-119 -30 -185 -11 -66 -20 -125 -20 -131 0 -6 26 -19 58 -28 198 -59 345 -174
379 -297 17 -62 33 -77 33 -31 0 15 4 43 10 62 5 19 16 80 25 135 30 196 45
291 56 340 5 28 12 60 15 73 4 21 9 23 55 20 l50 -3 -1 -418 c0 -229 -4 -427
-9 -440 -5 -12 -12 -51 -16 -87 -4 -36 -11 -85 -17 -110 -5 -25 -16 -83 -24
-130 -7 -47 -23 -139 -34 -205 -11 -66 -29 -174 -40 -240 -40 -237 -49 -291
-64 -370 -9 -44 -15 -86 -16 -92 0 -10 29 -13 113 -13 l113 0 13 88 c7 48 19
128 26 177 8 50 23 151 35 225 92 589 87 539 61 599 -19 45 -21 68 -21 232 0
211 7 233 96 324 56 57 51 39 89 310 7 55 18 120 23 145 6 25 13 72 16 105 4
33 11 80 16 105 6 25 17 95 25 155 13 93 34 232 62 398 l6 37 54 0 53 0 -3
-412 c-2 -324 -7 -436 -20 -518 -9 -58 -17 -117 -17 -131 0 -26 2 -27 38 -19
20 5 88 14 150 21 65 7 115 17 117 23 3 13 22 143 40 281 8 55 23 168 35 250
39 284 61 440 75 559 9 65 20 137 25 159 8 38 6 43 -21 71 -16 17 -42 51 -57
76 l-27 45 0 205 0 205 29 48 c86 144 285 242 544 269 100 10 115 14 122 32 8
18 15 73 49 356 l6 55 55 3 55 3 -3 -218 c-3 -199 -2 -218 14 -230 10 -7 29
-13 43 -13 39 0 171 -44 248 -81 85 -43 203 -155 222 -214 19 -57 26 -287 11
-373 -9 -58 -19 -81 -53 -125 -69 -90 -159 -148 -301 -193 -123 -39 -136 -42
-206 -49 -36 -4 -68 -12 -72 -19 -4 -6 -8 -31 -8 -56 0 -63 -9 -72 -61 -68
l-44 3 -3 66 -3 67 -72 7 c-64 6 -215 40 -259 59 -14 7 -17 -4 -21 -86 -5 -92
-28 -276 -46 -373 -6 -27 -13 -79 -16 -115 -3 -36 -10 -87 -16 -115 -5 -27
-16 -104 -24 -170 -9 -66 -19 -147 -24 -180 -5 -33 -12 -86 -15 -117 -6 -57
-6 -58 21 -64 40 -9 144 -43 168 -54 11 -5 31 -14 45 -20 31 -12 56 -28 93
-57 42 -33 54 -29 60 20 11 96 38 286 48 340 l12 58 50 -3 50 -3 -2 -400 c-2
-382 -14 -588 -41 -695 -4 -19 -11 -66 -15 -105 -3 -38 -11 -97 -16 -130 -10
-58 -22 -144 -53 -390 -8 -66 -18 -133 -22 -150 -3 -16 -11 -76 -18 -132 l-12
-103 162 0 162 0 6 28 c3 15 8 63 11 107 4 44 13 118 20 165 8 47 16 119 20
160 3 41 10 100 15 130 6 30 16 119 25 198 8 79 18 148 22 155 4 6 9 135 13
287 l6 275 28 50 c30 52 37 89 71 390 8 72 19 159 25 195 5 36 17 128 26 205
33 283 42 362 54 458 l13 97 54 0 53 0 0 -405 c0 -303 -4 -427 -14 -492 -8
-49 -17 -120 -21 -160 l-6 -71 59 18 c33 9 64 20 70 24 5 3 70 13 143 22 74 9
136 18 138 20 4 4 19 117 46 364 17 151 30 268 45 398 6 48 17 152 25 232 8
80 17 155 20 167 3 12 9 62 14 112 10 89 9 93 -17 143 -27 51 -27 55 -27 243
l0 190 28 48 c25 42 74 97 121 135 34 27 155 83 231 106 66 20 228 46 288 46
15 0 40 163 53 348 l6 92 54 0 54 0 0 -224 0 -223 53 -7 c132 -17 318 -94 401
-167 106 -93 128 -166 117 -389 -9 -184 -18 -208 -104 -293 -100 -97 -280
-171 -474 -193 l-62 -6 -7 -69 -7 -69 -48 0 -48 0 -3 67 -3 68 -80 11 c-140
20 -248 49 -326 89 l-29 16 0 -78 c0 -79 -25 -364 -35 -406 -3 -12 -12 -87
-20 -167 -8 -80 -19 -179 -24 -220 -18 -141 -34 -285 -38 -336 l-5 -51 42 -7
c47 -7 148 -39 195 -61 39 -18 40 -16 54 171 7 82 14 155 16 162 3 9 21 12 56
10 l51 -3 -2 -225 -1 -225 31 -33 c17 -19 40 -53 52 -75 21 -40 22 -53 20
-231 -3 -178 -5 -192 -27 -237 -14 -26 -45 -69 -69 -94 -44 -44 -44 -46 -51
-132 -4 -49 -11 -117 -16 -153 -6 -36 -17 -132 -24 -215 -8 -82 -19 -186 -24
-230 -5 -44 -12 -119 -16 -167 l-7 -88 66 0 c35 0 67 4 70 8 3 5 12 87 21 183
9 96 20 197 25 224 5 28 11 88 15 135 3 47 12 139 20 205 8 66 19 165 24 220
11 111 25 241 41 385 6 52 17 163 25 245 7 83 18 179 24 215 5 36 13 111 17
167 4 64 11 107 20 113 7 6 31 10 54 8 l41 -3 -1 -425 c0 -234 -5 -463 -10
-510 -28 -264 -51 -482 -65 -615 -8 -82 -17 -160 -20 -171 -4 -19 -35 -339
-35 -371 0 -9 15 -13 44 -13 l44 0 6 48 c20 182 28 258 42 417 8 99 20 236 25
305 5 69 13 159 19 200 5 41 14 147 20 235 6 88 15 183 20 210 5 28 12 100 15
160 3 61 11 148 16 195 5 47 16 162 24 255 8 94 19 217 25 275 5 58 14 159 20
225 6 66 16 177 22 248 l12 127 53 0 53 0 0 -412 c0 -227 -5 -456 -11 -508
-12 -106 -26 -264 -25 -267 1 -1 31 13 67 31 115 58 202 81 390 101 l56 6 7
87 c4 48 13 159 21 247 16 173 27 319 50 630 8 110 19 238 24 285 16 125 34
372 36 475 2 91 17 164 38 193 7 9 39 43 73 76 53 53 98 82 199 127 55 25 161
49 255 59 57 6 107 13 111 15 3 3 9 69 13 147 3 79 9 176 13 216 l6 72 54 0
54 0 -7 -210 c-5 -154 -4 -213 5 -223 6 -8 39 -18 74 -21 83 -10 186 -41 277
-85 99 -47 212 -156 231 -221 14 -50 14 -369 -1 -420 -18 -64 -109 -157 -204
-210 -87 -48 -238 -92 -358 -105 l-68 -7 0 -57 c0 -74 -7 -83 -61 -79 l-44 3
-3 66 -3 67 -71 7 c-156 15 -312 67 -413 138 l-40 29 -6 -159 c-4 -87 -9 -167
-13 -178 -3 -11 -10 -101 -16 -200 -6 -99 -15 -214 -20 -255 -5 -41 -14 -149
-20 -240 -5 -91 -13 -191 -16 -222 -6 -54 -5 -57 17 -62 13 -2 48 -9 78 -15
30 -6 56 -10 58 -7 2 2 8 65 13 139 4 75 11 140 15 146 3 6 28 11 56 11 l49 0
0 -174 0 -175 55 -31 c65 -37 142 -110 176 -165 23 -38 24 -49 27 -233 4 -193
3 -194 -23 -247 -15 -29 -44 -70 -64 -91 -38 -40 -130 -103 -179 -123 l-30
-13 -6 -116 c-4 -64 -13 -182 -21 -262 -7 -80 -16 -201 -20 -270 -3 -69 -8
-144 -12 -167 l-5 -43 265 0 266 0 5 33 c3 17 7 88 10 157 4 69 10 172 16 230
5 58 14 182 20 275 5 94 14 238 20 320 5 83 14 220 20 305 17 276 30 482 40
625 6 77 17 250 25 384 7 134 19 294 25 355 5 61 11 134 13 161 l2 50 53 3 53
3 -4 -458 c-2 -258 -9 -529 -16 -621 -8 -90 -11 -165 -8 -168 3 -3 29 13 58
35 102 78 227 124 379 142 52 6 106 15 120 19 l25 7 7 199 c4 109 12 267 17
349 6 83 16 272 21 420 6 149 15 326 20 395 5 69 12 203 16 298 l7 172 46 0
c45 0 47 1 68 48 68 148 281 264 532 291 51 6 96 13 100 16 3 4 10 103 15 221
l9 214 53 0 54 0 2 -222 3 -223 75 -7 c217 -22 443 -144 510 -274 24 -47 25
-56 25 -244 0 -225 -3 -237 -89 -325 -103 -105 -287 -181 -485 -201 l-71 -7 0
-68 0 -69 -50 0 -49 0 -3 67 -3 67 -85 13 c-196 28 -320 73 -420 152 -56 44
-80 69 -106 110 l-21 32 -6 -333 c-3 -183 -11 -385 -16 -448 -10 -112 -33
-651 -28 -656 1 -1 18 -4 37 -6 l35 -3 9 138 8 137 54 0 54 0 0 -154 0 -154
48 -12 c95 -24 237 -121 294 -202 15 -20 32 -56 39 -80 16 -58 12 -334 -5
-393 -35 -114 -169 -221 -353 -280 l-51 -17 -6 -111 c-3 -62 -10 -213 -16
-337 -6 -124 -13 -258 -17 -297 l-6 -73 300 0 301 0 6 33 c3 17 12 255 20 527
8 272 20 601 25 730 6 129 16 393 22 585 6 193 16 501 23 685 l11 335 53 3 52
3 0 -473 c0 -270 -6 -597 -14 -763 -8 -159 -18 -436 -21 -615 -3 -179 -10
-374 -15 -435 -5 -60 -12 -224 -16 -362 l-6 -253 391 0 391 0 0 325 0 325 -25
0 c-23 0 -24 3 -27 68 l-3 67 -65 6 c-114 10 -272 52 -342 91 -108 60 -174
118 -219 193 -22 38 -24 50 -27 227 -3 182 -3 190 21 242 35 77 117 153 218
202 46 23 100 45 119 49 19 4 40 11 45 15 13 10 144 30 193 30 22 0 44 6 51
13 7 9 14 245 21 753 5 406 13 817 16 912 l6 173 52 -3 51 -3 -3 -600 c-1
-330 -5 -684 -9 -787 l-6 -188 37 0 36 0 0 -135 c0 -151 -9 -135 85 -150 43
-7 147 -39 180 -55 11 -5 31 -14 45 -20 99 -42 189 -125 226 -209 22 -50 24
-66 24 -223 0 -168 0 -171 -30 -232 -28 -59 -81 -118 -143 -159 -48 -32 -116
-67 -127 -67 -7 0 -26 -7 -43 -15 -18 -8 -74 -23 -126 -35 -52 -11 -96 -22
-98 -24 -2 -2 -6 -114 -9 -248 -2 -133 -6 -309 -8 -390 l-4 -148 349 0 349 0
0 1489 0 1488 -69 7 c-198 18 -385 96 -489 203 -83 86 -91 111 -93 320 -2 203
4 230 80 315 87 98 277 186 436 203 33 3 77 8 98 11 l37 6 0 219 0 219 55 0
55 0 0 -219 0 -219 38 -6 c20 -3 62 -8 92 -11 105 -12 305 -87 365 -137 50
-41 96 -93 121 -135 l29 -48 0 -190 c0 -181 -1 -192 -24 -237 -23 -44 -116
-148 -132 -148 -4 0 -14 -6 -21 -13 -7 -7 -33 -23 -58 -34 -123 -58 -186 -76
-335 -97 l-80 -11 0 -63 c1 -34 2 -703 3 -1487 l2 -1425 348 0 349 0 -4 273
c-2 149 -6 327 -9 394 l-6 122 -91 21 c-175 40 -289 95 -373 179 -87 87 -93
107 -95 326 -2 189 -2 190 25 240 66 122 261 241 441 270 93 15 84 -1 87 148
l3 132 35 5 c30 4 35 9 33 30 -4 63 -20 1536 -16 1543 2 4 26 7 53 7 l48 0 6
-152 c3 -84 8 -299 11 -478 19 -1063 23 -1203 37 -1211 7 -5 29 -9 48 -9 167
-1 387 -88 495 -195 90 -89 105 -136 105 -326 0 -127 -3 -156 -21 -206 -12
-31 -26 -62 -31 -67 -82 -98 -156 -151 -278 -196 -66 -25 -217 -58 -280 -62
l-45 -3 -3 -67 c-3 -64 -4 -68 -27 -68 -13 0 -27 -5 -30 -11 -4 -5 -4 -152 0
-325 l8 -314 390 0 390 0 -6 53 c-4 28 -11 210 -17 402 -6 193 -15 467 -21
610 -18 502 -28 894 -32 1363 l-5 472 53 0 53 0 6 -112 c4 -62 11 -286 17
-498 5 -212 12 -401 15 -420 2 -19 12 -276 21 -570 8 -294 19 -614 23 -710 4
-96 8 -247 9 -336 0 -89 4 -182 7 -208 l7 -46 300 0 299 0 -6 103 c-3 56 -8
183 -11 282 -3 99 -11 237 -17 307 l-12 127 -75 28 c-151 54 -266 142 -313
240 -21 45 -23 60 -23 233 0 175 1 187 23 229 32 59 82 111 153 160 33 23 62
41 65 41 3 0 20 7 37 15 18 8 50 20 72 27 l40 13 3 153 3 153 52 -3 52 -3 7
-134 c5 -74 9 -135 11 -137 1 -1 18 1 37 5 l35 7 -3 129 c-2 72 -10 220 -18
330 -8 110 -17 372 -21 583 -3 210 -9 382 -12 382 -4 0 -14 -13 -23 -28 -41
-69 -166 -157 -283 -200 -78 -28 -140 -42 -245 -56 l-85 -11 -3 -67 -3 -68
-43 0 c-42 0 -44 1 -50 38 -3 20 -6 51 -6 68 l0 31 -82 10 c-218 28 -398 107
-481 210 -10 13 -25 29 -32 37 -8 8 -23 38 -35 67 -17 46 -20 77 -20 211 0
169 8 207 58 278 82 116 297 221 490 238 l77 7 3 223 2 222 54 0 54 0 4 -214
c1 -118 6 -217 9 -220 3 -3 50 -10 105 -16 90 -10 224 -42 249 -60 6 -4 26
-13 45 -20 45 -17 147 -89 186 -132 16 -18 40 -54 53 -80 22 -46 24 -48 66
-48 l44 0 5 -42 c3 -24 10 -173 16 -333 6 -159 15 -346 20 -415 5 -69 12 -206
15 -305 4 -99 13 -273 21 -387 8 -114 14 -241 14 -283 0 -41 1 -75 3 -75 45 0
251 -34 298 -50 85 -27 200 -85 239 -121 38 -35 54 -37 47 -6 -15 56 -27 410
-30 800 l-2 427 53 0 c28 0 53 -1 53 -2 1 -2 7 -97 14 -213 7 -115 18 -277 24
-360 10 -146 22 -321 41 -635 6 -85 15 -222 20 -305 6 -82 15 -222 20 -310 5
-88 17 -252 25 -365 15 -207 33 -462 42 -622 l5 -88 266 0 265 0 -7 133 c-3
72 -11 168 -16 212 -5 44 -14 160 -20 258 -15 264 -9 246 -93 292 -100 56
-178 135 -206 210 -20 54 -22 74 -19 230 3 152 5 175 25 215 35 71 107 139
196 185 l37 20 2 130 c1 71 2 150 2 175 l1 45 51 3 51 3 7 -38 c3 -21 9 -84
12 -140 4 -56 10 -106 13 -111 4 -5 34 -4 76 3 l70 11 -3 135 c-1 74 -6 166
-12 204 -5 39 -14 147 -20 240 -6 94 -15 202 -21 240 -5 39 -12 166 -16 283
-3 116 -8 212 -10 212 -5 0 -57 -33 -63 -41 -8 -10 -61 -36 -121 -59 -83 -32
-191 -58 -274 -66 l-75 -7 0 -69 0 -69 -47 3 -48 3 -5 65 -5 65 -65 8 c-209
24 -384 98 -487 203 -83 86 -92 114 -94 322 -2 199 5 228 74 307 30 35 147
125 162 125 3 0 24 9 48 19 73 33 170 60 240 67 l67 7 0 223 0 224 53 0 54 0
16 -177 c10 -98 17 -197 17 -220 0 -28 4 -43 13 -43 6 0 55 -5 107 -10 236
-25 442 -133 526 -276 26 -43 28 -58 35 -208 5 -88 11 -174 14 -191 3 -16 12
-122 20 -235 14 -192 19 -264 45 -580 6 -69 15 -183 20 -255 12 -149 40 -428
44 -432 2 -2 56 -10 122 -18 130 -16 211 -38 305 -85 34 -16 66 -30 71 -30 7
0 8 19 4 53 -19 141 -25 307 -26 697 l-1 425 50 3 c61 4 56 17 71 -208 6 -91
15 -194 20 -230 5 -36 12 -110 15 -165 4 -55 11 -134 16 -175 5 -41 16 -154
24 -250 24 -283 35 -409 45 -520 6 -58 15 -159 20 -225 6 -66 17 -183 25 -260
8 -77 17 -185 20 -240 3 -55 10 -131 16 -170 5 -38 16 -152 23 -252 8 -100 17
-187 21 -193 9 -15 85 -13 85 3 0 6 -6 55 -14 107 -8 52 -17 138 -21 190 -3
52 -11 120 -16 150 -5 30 -16 127 -24 215 -15 158 -22 231 -50 498 -11 97 -15
255 -15 538 l0 400 53 -3 52 -3 2 -40 c2 -22 7 -71 13 -110 6 -38 17 -137 25
-220 9 -82 24 -233 35 -335 11 -102 26 -252 34 -335 9 -82 18 -163 21 -180 2
-16 12 -106 20 -199 9 -93 17 -172 19 -175 3 -3 9 -69 16 -146 6 -77 15 -165
20 -195 5 -30 12 -81 15 -112 l6 -58 75 0 75 0 -7 68 c-3 37 -10 92 -15 122
-4 30 -13 116 -19 190 -6 74 -15 160 -20 190 -5 30 -14 115 -20 188 -14 166
-20 186 -69 236 -74 77 -85 111 -91 286 -7 192 3 249 60 324 l41 54 -2 224 -1
223 53 0 54 0 6 -50 c3 -27 12 -106 19 -175 7 -69 14 -126 16 -128 1 -2 16 4
33 13 37 18 139 51 194 60 35 7 37 9 36 44 0 34 -14 173 -38 376 -27 234 -32
279 -46 415 -8 80 -20 169 -25 199 -6 30 -10 95 -10 144 l0 89 -22 -14 c-60
-38 -233 -85 -345 -95 l-73 -6 0 -68 0 -69 -44 0 c-49 0 -46 -4 -61 96 l-6 41
-57 7 c-207 23 -395 103 -492 209 -40 43 -44 50 -65 97 -18 39 -20 66 -20 225
0 167 2 183 23 225 68 137 252 246 477 284 l70 12 0 222 0 222 51 0 52 0 7
-47 c3 -27 12 -122 19 -211 8 -90 18 -168 22 -172 5 -4 59 -13 119 -20 179
-18 328 -73 434 -158 63 -51 78 -69 106 -129 24 -49 25 -61 25 -235 0 -183 0
-184 -29 -240 -16 -31 -28 -58 -25 -60 2 -3 11 -67 19 -144 8 -76 24 -218 35
-314 10 -96 24 -220 30 -275 6 -55 17 -149 25 -210 8 -60 17 -141 20 -180 5
-57 26 -225 29 -232 1 -1 51 -7 111 -13 61 -6 152 -23 202 -37 51 -15 94 -25
97 -22 3 4 1 25 -23 202 -6 43 -11 263 -11 495 l-1 417 53 0 53 0 7 -75 c4
-41 12 -107 18 -146 11 -70 24 -180 54 -459 9 -77 20 -165 25 -195 5 -30 12
-84 16 -120 13 -149 39 -297 55 -325 34 -56 42 -115 40 -265 -4 -187 -5 -168
19 -360 12 -91 28 -223 36 -295 8 -71 17 -141 20 -155 3 -14 12 -86 20 -160 9
-74 20 -160 25 -190 5 -30 9 -76 9 -102 l1 -48 165 0 165 0 0 31 c0 16 -5 49
-10 72 -6 23 -17 96 -25 162 -8 66 -24 185 -35 265 -11 80 -27 197 -35 260 -8
63 -19 137 -24 165 -5 27 -13 77 -16 110 -4 33 -13 98 -21 144 -10 63 -14 184
-14 493 l0 409 53 -3 52 -3 12 -75 c7 -41 19 -131 28 -200 8 -69 17 -136 20
-148 l6 -24 34 26 c67 51 225 120 322 141 36 7 34 -4 13 125 -6 36 -17 117
-25 180 -8 63 -21 162 -29 220 -8 58 -22 159 -31 225 -9 66 -23 158 -31 205
-8 47 -14 127 -14 178 0 52 -4 92 -10 92 -5 0 -24 -6 -42 -14 -46 -20 -161
-45 -241 -53 l-67 -6 0 -69 0 -69 -47 3 c-47 3 -48 3 -55 43 -16 94 -14 92
-81 100 -195 22 -391 106 -482 207 -77 85 -83 111 -86 320 -2 180 -2 184 24
233 32 62 39 70 103 123 86 71 242 136 377 157 l37 6 0 224 0 225 55 0 c30 0
55 -1 55 -2 0 -9 33 -268 43 -343 l12 -90 115 -12 c273 -29 464 -126 558 -283
27 -45 27 -46 27 -235 0 -180 -1 -192 -24 -235 -13 -25 -39 -61 -57 -81 l-35
-35 11 -80 c5 -43 19 -144 30 -224 32 -221 66 -470 104 -760 8 -63 21 -145 27
-182 l12 -67 76 -6 c42 -4 110 -13 151 -20 41 -7 77 -11 79 -9 3 3 -9 90 -29
199 -5 28 -9 238 -9 468 l-1 418 53 -3 52 -3 12 -80 c6 -44 21 -141 33 -215
11 -74 28 -182 36 -240 8 -58 17 -112 19 -120 3 -9 12 -63 20 -120 60 -428 55
-410 124 -486 80 -88 91 -126 91 -315 0 -148 -8 -199 -40 -258 -5 -10 0 -72
11 -156 11 -77 27 -185 34 -240 8 -55 19 -120 24 -145 6 -25 13 -72 17 -105 3
-33 10 -76 14 -95 5 -19 14 -75 20 -125 6 -49 16 -114 22 -142 l11 -53 109 0
108 0 0 26 c0 14 -4 44 -9 67 -10 40 -29 154 -56 322 -7 44 -23 136 -35 205
-12 69 -28 161 -35 205 -29 181 -48 284 -62 350 -13 56 -17 156 -20 503 l-4
433 53 -3 c60 -3 55 6 82 -153 9 -49 23 -130 31 -180 9 -49 23 -133 31 -185 8
-52 18 -111 22 -130 l9 -35 7 42 c25 142 165 266 374 332 l72 24 -1 36 c0 20
-4 56 -9 81 -4 25 -18 101 -30 170 -11 69 -27 163 -35 210 -8 47 -24 139 -35
205 -11 66 -27 161 -36 210 -8 50 -18 131 -22 180 -7 88 -7 90 -32 88 -14 -1
-71 -8 -127 -15 l-102 -12 -3 -65 -3 -66 -47 -3 c-47 -3 -47 -3 -57 35 -5 21
-11 52 -13 68 -3 25 -8 31 -38 37 -242 49 -307 72 -421 152 -59 42 -129 127
-141 173 -4 15 -8 107 -9 204 -2 171 -1 178 24 230 14 30 34 63 44 74 35 40
124 104 180 131 63 29 197 74 226 74 16 0 17 18 17 230 l0 230 53 0 53 0 11
-72 c7 -40 21 -131 32 -203 11 -71 22 -137 26 -146 4 -12 36 -18 143 -27 229
-20 379 -79 497 -197 93 -93 105 -130 105 -322 0 -206 -35 -290 -157 -379 -58
-42 -62 -57 -43 -141 5 -23 17 -86 26 -140 21 -128 70 -422 109 -653 8 -47 20
-116 26 -155 7 -38 17 -97 23 -130 l11 -60 105 -12 c58 -6 106 -10 106 -10 3
4 -25 168 -35 204 -7 24 -11 190 -11 451 l0 412 53 0 53 0 12 -67 c10 -62 28
-159 67 -363 44 -235 55 -296 74 -400 12 -63 28 -155 37 -204 8 -49 19 -97 25
-107 5 -10 33 -34 62 -53 69 -46 120 -102 149 -163 21 -44 23 -61 23 -223 0
-191 -7 -223 -66 -300 l-26 -35 17 -100 c10 -55 28 -152 40 -215 12 -63 27
-151 35 -195 7 -44 17 -98 23 -120 6 -22 13 -65 17 -95 4 -30 13 -80 20 -110
7 -30 16 -76 20 -102 l6 -48 214 0 215 0 2 -196 3 -195 60 -25 c33 -14 68 -28
78 -31 16 -5 17 108 17 2273 0 2204 -2 2384 -29 2419 -5 5 -13 25 -19 43 -27
78 -139 213 -217 259 -46 28 -125 63 -166 75 -35 10 -2120 13 -10666 15 -6012
2 -10624 -1 -10627 -6z"/>
<path d="M10386 11202 c-4 -53 -11 -140 -16 -192 -5 -52 -12 -158 -16 -235 -3
-77 -12 -209 -20 -294 -8 -85 -14 -169 -14 -188 l0 -33 413 2 412 3 7 120 c11
193 28 566 28 618 l0 48 -37 -3 -38 -3 -3 -68 -3 -68 -52 3 -52 3 -3 68 -3 67
-42 0 c-52 0 -220 35 -264 55 -17 8 -36 15 -41 15 -33 0 -184 100 -226 150
l-24 29 -6 -97z"/>
<path d="M16909 11242 c-48 -48 -134 -99 -224 -133 -57 -21 -221 -57 -280 -61
l-40 -3 -5 -65 -5 -65 -46 -3 -46 -3 -6 61 c-4 34 -9 66 -13 71 -3 5 -21 9
-40 9 -34 0 -34 0 -34 -47 0 -27 5 -115 10 -198 6 -82 14 -238 18 -345 l7
-195 413 -3 412 -2 0 22 c0 47 -21 390 -35 563 -8 99 -17 240 -21 313 -3 72
-9 132 -13 132 -3 0 -27 -22 -52 -48z"/>
<path d="M4615 11242 c-57 -52 -169 -122 -197 -122 -5 0 -24 -7 -41 -15 -39
-18 -210 -55 -253 -55 -29 0 -33 -4 -43 -44 -6 -25 -11 -57 -11 -71 0 -25 -2
-26 -52 -23 l-53 3 -3 68 -3 67 -47 0 c-47 0 -147 19 -232 45 -24 8 -46 12
-48 11 -3 -4 -24 -119 -47 -261 -9 -49 -18 -97 -21 -105 -3 -8 -12 -51 -19
-95 -8 -44 -24 -132 -36 -195 -12 -63 -24 -132 -26 -152 l-5 -38 505 0 505 0
11 63 c13 70 26 152 46 282 8 50 19 110 25 135 5 25 17 90 26 145 25 161 43
266 54 323 6 30 10 58 8 62 -2 5 -21 -7 -43 -28z"/>
<path d="M22705 11208 c4 -35 11 -79 15 -98 5 -19 17 -80 26 -135 9 -55 24
-149 35 -210 10 -60 25 -151 33 -202 8 -51 19 -116 25 -145 6 -29 15 -75 19
-103 l7 -50 508 -3 c481 -2 508 -1 503 15 -2 10 -7 38 -11 63 -3 25 -12 77
-20 115 -8 39 -24 122 -35 185 -12 63 -29 160 -40 215 -10 55 -24 130 -30 166
-15 83 -21 94 -48 80 -26 -14 -195 -50 -252 -53 l-45 -3 -3 -67 -3 -68 -48 0
-48 0 -11 43 c-7 23 -13 53 -14 67 -3 22 -9 26 -58 32 -190 23 -366 92 -464
182 -21 20 -41 36 -43 36 -3 0 -2 -28 2 -62z"/>
<path d="M8679 11168 c0 -35 -4 -99 -9 -143 -5 -44 -14 -138 -20 -210 -6 -71
-17 -193 -25 -270 -8 -77 -17 -173 -20 -212 l-6 -73 430 0 c237 0 431 1 432 3
3 8 20 219 29 362 7 94 17 229 24 300 7 72 10 133 7 137 -4 4 -22 3 -41 -2
-19 -6 -56 -10 -82 -10 l-48 0 0 -39 c0 -21 -3 -53 -6 -70 -6 -30 -9 -31 -55
-31 l-48 0 -3 68 -3 67 -40 3 c-52 3 -247 42 -260 52 -5 4 -28 13 -49 20 -48
16 -158 78 -169 97 -4 7 -15 13 -22 13 -12 0 -15 -15 -16 -62z"/>
<path d="M18615 11199 c-40 -29 -133 -77 -190 -97 -56 -21 -207 -52 -249 -52
-23 0 -47 -5 -54 -12 -7 -7 -12 -38 -12 -71 l0 -58 -47 3 -48 3 -5 65 -5 65
-60 6 c-33 4 -73 10 -88 14 l-29 8 7 -94 c3 -52 10 -132 15 -179 5 -47 14
-170 20 -275 6 -104 13 -207 16 -227 l6 -38 427 0 c235 0 430 2 433 5 2 3 1
33 -3 67 -5 35 -15 153 -24 263 -8 110 -17 207 -20 215 -2 8 -9 80 -15 160
-13 190 -21 260 -29 259 -3 0 -24 -14 -46 -30z"/>
<path d="M7000 11139 c0 -16 -5 -49 -10 -72 -6 -23 -17 -105 -25 -182 -28
-263 -45 -410 -54 -470 -6 -33 -13 -81 -16 -107 l-6 -48 455 0 c250 0 457 4
460 8 2 4 9 64 16 132 6 69 15 157 20 195 9 64 36 321 47 454 4 48 3 53 -12
47 -34 -13 -161 -38 -217 -43 l-57 -5 -12 -69 -12 -69 -48 0 -48 0 -3 68 -3
67 -65 6 c-115 11 -244 47 -347 98 -56 28 -63 27 -63 -10z"/>
<path d="M20286 11145 c-26 -14 -52 -25 -58 -25 -5 0 -24 -7 -41 -15 -43 -20
-211 -55 -263 -55 -49 0 -54 -8 -54 -86 l0 -54 -49 0 -49 0 -7 69 -7 69 -61 5
c-54 5 -168 27 -218 42 -19 6 -18 -16 6 -225 8 -69 19 -172 25 -230 5 -58 14
-148 20 -200 7 -52 14 -114 16 -137 l5 -43 456 0 456 0 -7 53 c-4 28 -13 108
-21 177 -8 69 -16 139 -20 155 -5 30 -26 208 -48 418 -7 68 -15 107 -22 107
-7 0 -33 -11 -59 -25z"/>
<path d="M6235 11147 c-49 -33 -258 -91 -355 -99 -33 -3 -35 -6 -42 -48 -15
-92 -14 -90 -63 -90 l-45 0 0 64 c0 71 -5 76 -68 76 -46 0 -153 24 -252 56
-42 13 -78 24 -82 24 -10 0 -25 -64 -33 -140 -4 -36 -11 -84 -16 -108 -5 -24
-16 -89 -24 -145 -33 -233 -45 -315 -54 -362 -6 -27 -13 -65 -15 -82 l-5 -33
482 0 483 0 12 88 c7 48 19 139 27 202 8 63 17 126 20 140 4 13 13 74 20 135
8 60 19 144 25 185 5 41 12 92 15 113 6 40 0 44 -30 24z"/>
<path d="M21084 11144 c3 -8 13 -73 22 -142 8 -70 19 -145 24 -167 4 -22 11
-74 15 -115 4 -41 10 -91 15 -110 5 -19 14 -82 20 -140 6 -58 16 -129 22 -157
l11 -53 479 0 479 0 -6 33 c-3 17 -12 79 -21 137 -8 58 -24 164 -35 235 -11
72 -26 173 -33 225 -8 52 -20 128 -27 168 -13 73 -13 74 -42 68 -16 -3 -43
-12 -60 -21 -39 -17 -204 -53 -267 -57 l-45 -3 -3 -67 -3 -68 -49 0 c-55 0
-48 -11 -66 108 -5 30 -8 32 -44 32 -73 0 -267 53 -345 94 -38 20 -49 20 -41
0z"/>
<path d="M25116 10940 c-4 -14 -5 -277 -3 -585 2 -412 6 -571 15 -600 7 -22
19 -78 27 -125 35 -210 46 -268 56 -319 6 -29 17 -90 24 -135 8 -44 20 -121
28 -171 9 -49 22 -128 31 -175 20 -108 43 -238 56 -315 6 -33 19 -112 30 -175
11 -63 27 -155 35 -203 8 -49 17 -96 20 -106 3 -9 11 -57 19 -106 14 -83 24
-141 76 -445 10 -58 25 -145 33 -195 9 -49 18 -97 21 -105 3 -8 13 -60 21
-115 8 -55 24 -152 36 -215 11 -63 26 -153 33 -200 8 -47 18 -103 24 -125 6
-22 14 -67 17 -100 4 -33 11 -74 16 -90 5 -17 16 -73 24 -125 15 -101 33 -202
104 -613 39 -225 61 -353 76 -447 9 -52 20 -111 25 -130 4 -19 11 -60 15 -90
3 -30 11 -74 17 -97 l11 -43 85 0 85 0 -8 72 c-3 40 -10 79 -15 88 -4 8 -11
44 -15 80 -4 36 -13 92 -20 125 -7 33 -16 87 -20 120 -4 33 -11 76 -16 95 -4
19 -16 80 -25 135 -8 55 -24 152 -35 215 -11 63 -26 155 -34 205 -8 49 -17
101 -21 115 -3 14 -12 63 -19 110 -8 47 -23 141 -35 210 -28 163 -54 321 -74
445 -9 55 -19 108 -22 118 -3 10 -12 58 -19 105 -8 48 -23 143 -35 212 -11 69
-27 165 -35 215 -8 49 -17 101 -20 115 -4 14 -13 63 -21 110 -14 85 -37 223
-75 445 -11 66 -27 163 -35 215 -7 52 -16 101 -19 109 -3 7 -12 57 -21 110
-15 93 -32 195 -75 446 -11 66 -26 158 -34 205 -7 47 -16 96 -20 110 -3 14
-12 66 -20 115 -8 50 -23 142 -34 205 -10 63 -27 160 -35 215 -9 55 -19 108
-22 118 -3 10 -12 58 -19 105 -16 102 -45 276 -75 452 -12 69 -28 163 -35 210
-28 169 -42 227 -49 200z"/>
<path d="M2205 10893 c-3 -27 -10 -66 -15 -89 -5 -23 -16 -83 -25 -135 -8 -52
-24 -148 -35 -214 -22 -127 -49 -288 -74 -446 -9 -53 -18 -103 -21 -110 -3 -8
-12 -59 -21 -114 -35 -228 -43 -275 -53 -326 -11 -56 -34 -184 -56 -324 -7
-44 -23 -134 -34 -200 -45 -262 -62 -364 -76 -452 -7 -51 -16 -100 -19 -110
-3 -10 -13 -63 -22 -118 -8 -55 -24 -149 -34 -210 -10 -60 -26 -153 -34 -205
-8 -52 -18 -106 -22 -120 -3 -14 -12 -63 -19 -110 -22 -136 -52 -316 -75 -445
-11 -66 -27 -158 -35 -205 -7 -47 -23 -141 -35 -210 -45 -258 -60 -348 -75
-445 -8 -55 -18 -106 -20 -114 -3 -7 -12 -57 -21 -110 -21 -129 -49 -300 -74
-446 -11 -66 -27 -161 -35 -211 -8 -50 -17 -98 -20 -105 -3 -8 -12 -57 -19
-109 -8 -52 -24 -151 -36 -220 -12 -69 -23 -141 -24 -160 l-1 -35 85 -3 86 -3
18 108 c25 152 42 250 65 383 11 63 27 160 36 215 8 55 18 108 21 118 3 10 12
55 19 100 8 45 23 136 34 202 12 66 25 147 31 180 12 76 35 205 56 315 9 47
22 126 31 175 8 50 23 137 33 195 10 58 25 150 34 205 9 55 19 106 21 114 3 7
12 57 21 110 9 53 24 143 34 201 10 58 25 150 34 205 9 55 21 116 26 135 4 19
11 60 15 90 4 30 11 71 15 90 5 19 17 80 26 135 9 55 24 147 34 205 10 58 25
150 34 205 9 55 19 108 22 118 3 10 12 55 19 100 8 45 23 138 35 207 12 69 27
162 35 206 7 45 18 106 24 135 6 30 18 97 27 149 37 217 44 258 61 330 14 65
17 152 20 648 2 359 0 572 -6 572 -5 0 -13 -21 -16 -47z"/>
</g>
</svg>
